<svg width="834" height="502" viewBox="0 0 834 502" fill="none" xmlns="http://www.w3.org/2000/svg">
    <g clip-path="url(#clip0_28_428)">
        <path
            d="M44.3166 500.205C44.2609 499.96 38.8766 475.407 49.8727 455.015C60.8688 434.623 84.341 425.63 84.5768 425.541L85.6496 425.139L85.903 426.257C85.9587 426.502 91.3429 451.055 80.3469 471.447C69.3512 491.839 45.8786 500.832 45.6428 500.921L44.5695 501.323L44.3166 500.205ZM84.1784 427.867C79.4767 429.89 60.9206 438.741 51.6335 455.964C42.3454 473.189 45.1476 493.558 46.0412 498.595C50.7409 496.577 69.2897 487.739 78.5861 470.498C87.8737 453.274 85.0724 432.907 84.1784 427.867V427.867Z"
            fill="#F1F1F1" />
        <path
            d="M71.9437 464.294C52.1831 476.183 44.5727 499.797 44.5727 499.797C44.5727 499.797 69.0005 504.136 88.761 492.247C108.522 480.358 116.132 456.744 116.132 456.744C116.132 456.744 91.7042 452.405 71.9437 464.294Z"
            fill="#F1F1F1" />
        <path
            d="M371.193 273.709C371.494 272.154 371.45 270.551 371.065 269.015C370.68 267.478 369.963 266.044 368.964 264.814C367.965 263.585 366.708 262.589 365.283 261.898C363.857 261.206 362.297 260.836 360.713 260.813L351.562 237.8L336.221 239.95L349.601 272.267C349.738 274.931 350.847 277.452 352.719 279.352C354.59 281.253 357.094 282.401 359.756 282.579C362.417 282.757 365.052 281.952 367.16 280.317C369.267 278.683 370.702 276.331 371.193 273.709Z"
            fill="#9F616A" />
        <path
            d="M342.93 265.624L338.176 254.289L308.555 197.904L310.165 93.5714L310.475 93.5304C329.429 91.0261 342.253 178.359 342.79 182.078L361.505 246.086L365.96 260.195L342.93 265.624Z"
            fill="#3069FE" />
        <path d="M297.415 485.625L311.817 485.624L318.668 430.073L297.412 430.074L297.415 485.625Z" fill="#9F616A" />
        <path
            d="M293.741 480.923L322.104 480.922H322.105C326.899 480.922 331.496 482.826 334.886 486.216C338.275 489.606 340.18 494.203 340.18 498.997V499.584L293.742 499.586L293.741 480.923Z"
            fill="#2F2E41" />
        <path d="M164.992 463.682L176.809 471.916L214.191 430.258L196.751 418.105L164.992 463.682Z" fill="#9F616A" />
        <path
            d="M164.667 457.724L187.937 473.939L187.938 473.94C191.871 476.681 194.554 480.872 195.397 485.591C196.24 490.31 195.174 495.171 192.433 499.104L192.097 499.586L153.997 473.036L164.667 457.724Z"
            fill="#2F2E41" />
        <path
            d="M289.5 472.567L288.877 368.357L279.815 302.831L262.92 360.455L262.888 360.503L201.663 449.388L177.839 437.317L177.97 437.007C179.426 433.544 213.732 352.214 222.953 352.214C223.758 352.27 224.565 352.13 225.304 351.805C226.043 351.48 226.692 350.981 227.195 350.349C229.902 346.735 227.698 339.067 227.675 338.99C225.036 328.044 231.673 324.316 232.995 323.694L236.55 250.297L236.919 250.322L333.308 257.083L329.264 348.849L320.566 469.08L320.267 469.114L289.5 472.567Z"
            fill="#2F2E41" />
        <path
            d="M334.781 273.347L334.364 273.313L230.7 264.957L230.956 230.657L236.029 141.099L236.058 141.036L256.721 96.1777L271.368 89.5452L292.738 88.4206L292.791 88.4336L312.293 93.2655L332.581 238.904L334.781 273.347Z"
            fill="#3069FE" />
        <path
            d="M296.087 76.9241C309.314 69.6938 314.175 53.1101 306.944 39.8834C299.714 26.6567 283.13 21.7958 269.904 29.0261C256.677 36.2565 251.816 52.8402 259.046 66.0669C266.277 79.2935 282.86 84.1545 296.087 76.9241Z"
            fill="#9F616A" />
        <path
            d="M255.546 59.8265V49.1922C255.546 49.1922 246.97 39.0918 256.404 36.5475C256.404 36.5475 258.977 11.1047 281.274 22.978C281.274 22.978 312.148 17.8895 308.717 35.6995C308.717 35.6995 316.435 31.0498 313.863 42.9232L308.887 62.049C308.887 62.049 311.29 49.415 303.572 47.7188L299.284 45.1745C299.284 45.1745 287.277 57.0478 269.268 42.6302C269.268 42.6302 261.549 40.7881 262.407 48.4209C263.265 56.0538 255.546 59.8265 255.546 59.8265Z"
            fill="#2F2E41" />
        <path
            d="M280.154 247.733C280.171 246.148 279.84 244.579 279.186 243.137C278.531 241.694 277.568 240.412 276.365 239.382C275.161 238.352 273.746 237.598 272.22 237.173C270.693 236.749 269.092 236.664 267.53 236.926L254.398 215.929L239.692 220.797L258.653 250.188C259.266 252.784 260.81 255.065 262.992 256.599C265.175 258.133 267.844 258.813 270.494 258.51C273.144 258.208 275.591 256.943 277.372 254.957C279.152 252.97 280.142 250.4 280.154 247.733Z"
            fill="#9F616A" />
        <path
            d="M246.236 241.114L222.479 192.879L222.5 192.762C222.595 192.228 232.159 139.128 239.473 119.61C246.833 99.969 256.908 96.0255 257.334 95.8672L257.546 95.7881L266.58 104.453L254.066 187.98L267.555 228.264L246.236 241.114Z"
            fill="#3069FE" />
        <path d="M833.103 0.966919H787.103V46.9669H833.103V0.966919Z" fill="#F1F1F1" />
        <path d="M473.103 179.967H427.103V225.967H473.103V179.967Z" fill="#F1F1F1" />
        <path d="M452.922 205.81H816.597V21.7009H452.922V205.81Z" fill="white" />
        <path d="M819.597 208.81H449.922V18.7007H819.597V208.81ZM455.922 202.81H813.597V24.7007H455.922V202.81Z"
            fill="#E5E5E5" />
        <path d="M776.381 86.2828H496.575V95.5619H776.381V86.2828Z" fill="#E5E5E5" />
        <path d="M776.381 108.786H496.575V118.065H776.381V108.786Z" fill="#E5E5E5" />
        <path d="M776.381 142.012H724.381V150.065H776.381V142.012Z" fill="#3069FE" />
        <path
            d="M382.897 501.283H1.89697C1.63175 501.283 1.37739 501.177 1.18986 500.99C1.00232 500.802 0.896965 500.548 0.896965 500.283C0.896965 500.018 1.00232 499.763 1.18986 499.576C1.37739 499.388 1.63175 499.283 1.89697 499.283H382.897C383.162 499.283 383.417 499.388 383.604 499.576C383.792 499.763 383.897 500.018 383.897 500.283C383.897 500.548 383.792 500.802 383.604 500.99C383.417 501.177 383.162 501.283 382.897 501.283Z"
            fill="#CBCBCB" />
    </g>
    <defs>
        <clipPath id="clip0_28_428">
            <rect width="832.206" height="500.356" fill="white" transform="translate(0.896942 0.966919)" />
        </clipPath>
    </defs>
</svg>