<svg width="870" height="521" viewBox="0 0 870 521" fill="none" xmlns="http://www.w3.org/2000/svg">
    <g clip-path="url(#clip0_28_199)">
        <path
            d="M666.092 515.085C654.954 505.673 648.189 490.805 649.963 476.331C651.737 461.857 662.726 448.551 676.981 445.478C691.236 442.404 707.485 450.912 711.815 464.837C714.198 437.991 716.943 410.02 731.217 387.157C744.141 366.456 766.525 351.644 790.785 348.994C815.045 346.344 840.588 356.352 855.718 375.5C870.848 394.649 874.553 422.486 863.956 444.47C856.15 460.664 841.768 472.716 826.699 482.521C778.008 513.938 719.608 526.714 662.246 518.499L666.092 515.085Z"
            fill="#F2F2F2" />
        <path
            d="M831.728 356.907C811.71 373.212 793.346 391.447 776.902 411.349C751.166 442.39 730.34 477.192 715.15 514.543C714.038 517.268 718.462 518.454 719.562 515.76C744.416 455.056 784.092 401.553 834.963 360.143C837.248 358.283 833.993 355.062 831.728 356.907Z"
            fill="white" />
        <path
            d="M280.067 512.528C295.366 499.601 304.658 479.18 302.221 459.3C299.784 439.42 284.69 421.144 265.112 416.922C245.533 412.7 223.214 424.387 217.267 443.512C213.995 406.639 210.223 368.22 190.619 336.819C172.868 308.386 142.122 288.041 108.801 284.401C75.4801 280.762 40.3972 294.508 19.6161 320.808C-1.1651 347.108 -6.25327 385.343 8.30131 415.537C19.0232 437.781 38.7766 454.334 59.4733 467.802C125.503 510.767 207.412 528.686 285.351 517.216"
            fill="#F2F2F2" />
        <path
            d="M52.5667 295.27C80.0608 317.665 105.284 342.711 127.871 370.047C150.461 397.355 170.35 426.79 187.257 457.938C196.707 475.41 205.196 493.386 212.687 511.784C214.214 515.526 208.137 517.156 206.627 513.455C193.359 481.019 176.944 449.961 157.618 420.728C138.385 391.6 116.373 364.406 91.889 339.529C78.041 325.466 63.4302 312.174 48.1227 299.714C44.9851 297.16 49.455 292.737 52.5667 295.27L52.5667 295.27Z"
            fill="white" />
        <path
            d="M624.5 519.828H259.5V145.328C259.5 65.6506 324.322 0.828339 404 0.828339H480C559.678 0.828339 624.5 65.6506 624.5 145.328V519.828Z"
            fill="#F2F2F2" />
        <path
            d="M548.5 519.828H259.5V145.328C259.42 114.798 269.088 85.0386 287.096 60.384C287.759 59.4792 288.422 58.5862 289.104 57.7029C297.815 46.2789 308.18 36.218 319.859 27.8523C320.518 27.3723 321.181 26.9006 321.853 26.4289C331.625 19.6664 342.196 14.1381 353.325 9.96994C353.986 9.71945 354.659 9.46847 355.332 9.22774C365.397 5.63581 375.83 3.17536 386.44 1.89182C387.098 1.80197 387.773 1.73166 388.448 1.66135C398.787 0.555877 409.215 0.555877 419.554 1.66135C420.227 1.73166 420.902 1.80196 421.568 1.89278C432.175 3.17641 442.606 5.63656 452.668 9.22778C453.341 9.46851 454.014 9.71948 454.677 9.97046C465.669 14.086 476.115 19.5318 485.783 26.1863C486.455 26.6477 487.127 27.1194 487.79 27.5911C494.336 32.2638 500.485 37.4695 506.173 43.1551C510.735 47.7155 514.986 52.5766 518.898 57.7058C519.578 58.5862 520.24 59.4793 520.903 60.3826C538.911 85.0375 548.58 114.797 548.5 145.328V519.828Z"
            fill="#CCCCCC" />
        <path
            d="M525 352.328C533.836 352.328 541 345.165 541 336.328C541 327.492 533.836 320.328 525 320.328C516.163 320.328 509 327.492 509 336.328C509 345.165 516.163 352.328 525 352.328Z"
            fill="#3069FE" />
        <path d="M594.599 508.611H582.339L576.506 461.323L594.601 461.324L594.599 508.611Z" fill="#FFB8B8" />
        <path
            d="M573.582 505.108H597.225V519.995H558.695C558.695 518.04 559.08 516.104 559.828 514.298C560.576 512.492 561.673 510.851 563.055 509.468C564.437 508.086 566.079 506.989 567.885 506.241C569.691 505.493 571.627 505.108 573.582 505.108Z"
            fill="#2F2E41" />
        <path d="M655.599 508.611H643.339L637.506 461.323L655.601 461.324L655.599 508.611Z" fill="#FFB8B8" />
        <path
            d="M634.582 505.108H658.225V519.995H619.695C619.695 518.04 620.08 516.104 620.828 514.298C621.576 512.492 622.673 510.851 624.055 509.468C625.437 508.086 627.079 506.989 628.885 506.241C630.691 505.493 632.627 505.108 634.582 505.108Z"
            fill="#2F2E41" />
        <path
            d="M533.098 339.498C532.216 338.198 531.629 336.721 531.38 335.171C531.131 333.62 531.224 332.034 531.654 330.523C532.084 329.013 532.84 327.615 533.869 326.428C534.898 325.242 536.174 324.295 537.608 323.655L579.284 208.788L599.791 219.98L552.206 329.75C553.122 332.231 553.096 334.961 552.133 337.424C551.17 339.886 549.337 341.91 546.982 343.112C544.626 344.313 541.912 344.609 539.353 343.943C536.794 343.277 534.568 341.695 533.098 339.498Z"
            fill="#FFB8B8" />
        <path
            d="M649.336 361.082C647.974 360.301 646.799 359.23 645.895 357.946C644.991 356.662 644.38 355.195 644.104 353.649C643.828 352.103 643.895 350.515 644.299 348.998C644.703 347.48 645.435 346.069 646.443 344.865L633.533 223.356L656.87 224.422L662.236 343.943C664.147 345.771 665.32 348.236 665.535 350.871C665.749 353.507 664.989 356.129 663.399 358.242C661.809 360.355 659.499 361.811 656.907 362.334C654.316 362.857 651.622 362.412 649.336 361.082Z"
            fill="#FFB8B8" />
        <path
            d="M612.106 187.512C625.67 187.512 636.667 176.516 636.667 162.951C636.667 149.386 625.67 138.39 612.106 138.39C598.541 138.39 587.545 149.386 587.545 162.951C587.545 176.516 598.541 187.512 612.106 187.512Z"
            fill="#FFB8B8" />
        <path
            d="M649.18 333.447H575.133L575.222 332.871C575.355 332.01 588.419 246.432 578.784 218.435C577.817 215.684 577.902 212.672 579.022 209.979C580.143 207.287 582.22 205.104 584.853 203.851H584.853C598.625 197.366 625.061 189.38 647.373 208.761C650.657 211.659 653.22 215.282 654.862 219.343C656.504 223.403 657.179 227.79 656.833 232.157L649.18 333.447Z"
            fill="#3069FE" />
        <path
            d="M589.354 259.079L556.018 252.316L571.644 215.286C572.579 211.699 574.899 208.63 578.094 206.751C581.289 204.873 585.098 204.338 588.687 205.264C592.276 206.191 595.351 208.503 597.237 211.693C599.124 214.884 599.667 218.692 598.75 222.283L589.354 259.079Z"
            fill="#3069FE" />
        <path
            d="M632.05 271.636L630.046 225.695C628.526 217.059 633.47 208.895 641.074 207.56C648.679 206.231 656.105 212.22 657.632 220.92L665.165 263.848L632.05 271.636Z"
            fill="#3069FE" />
        <path
            d="M646.716 327.947C658.631 373.324 659.93 431.016 656.716 493.947L640.716 491.947L611.716 371.947L595.716 493.947L577.716 492.947C572.339 426.917 567.103 370.232 575.716 332.947L646.716 327.947Z"
            fill="#2F2E41" />
        <path
            d="M628.289 181.932C623.707 186.813 615.198 184.193 614.601 177.525C614.554 177.007 614.557 176.487 614.611 175.969C614.919 173.016 616.625 170.334 616.217 167.216C616.124 166.44 615.835 165.7 615.377 165.067C611.725 160.178 603.154 167.254 599.708 162.828C597.595 160.114 600.079 155.841 598.458 152.807C596.318 148.804 589.979 150.779 586.004 148.586C581.581 146.147 581.846 139.361 584.757 135.233C588.308 130.2 594.533 127.514 600.68 127.127C606.828 126.74 612.933 128.401 618.673 130.638C625.194 133.179 631.66 136.692 635.673 142.426C640.554 149.399 641.023 158.774 638.583 166.927C637.098 171.887 632.031 177.947 628.289 181.932Z"
            fill="#2F2E41" />
        <path
            d="M839.982 520.472H101.688C101.372 520.471 101.07 520.345 100.848 520.122C100.625 519.899 100.5 519.596 100.5 519.281C100.5 518.966 100.625 518.664 100.848 518.44C101.07 518.217 101.372 518.091 101.688 518.09H839.982C840.297 518.091 840.599 518.217 840.821 518.44C841.044 518.664 841.169 518.966 841.169 519.281C841.169 519.596 841.044 519.899 840.821 520.122C840.599 520.345 840.297 520.471 839.982 520.472Z"
            fill="#3F3D56" />
        <path
            d="M469 411.328H339C337.288 411.338 335.642 410.667 334.424 409.465C333.205 408.262 332.513 406.625 332.5 404.913V114.744C332.513 113.032 333.205 111.395 334.424 110.192C335.642 108.989 337.288 108.319 339 108.328H469C470.712 108.319 472.358 108.989 473.576 110.192C474.795 111.395 475.487 113.032 475.5 114.744V404.913C475.487 406.625 474.795 408.262 473.576 409.465C472.358 410.667 470.712 411.338 469 411.328Z"
            fill="white" />
        <path d="M475.5 202.218H332.5V204.218H475.5V202.218Z" fill="#CCCCCC" />
        <path d="M476 316.328H333V318.328H476V316.328Z" fill="#CCCCCC" />
        <path d="M379.5 108.328H377.5V412.328H379.5V108.328Z" fill="#CCCCCC" />
        <path d="M429.5 108.328H427.5V412.328H429.5V108.328Z" fill="#CCCCCC" />
    </g>
    <defs>
        <clipPath id="clip0_28_199">
            <rect width="870" height="520.139" fill="white" transform="translate(0 0.828339)" />
        </clipPath>
    </defs>
</svg>